<?xml version="1.0" encoding="utf-8"?>
<!-- Generator: Adobe Illustrator 19.0.0, SVG Export Plug-In . SVG Version: 6.00 Build 0)  -->
<svg version="1.1" id="Layer_1" xmlns="http://www.w3.org/2000/svg" xmlns:xlink="http://www.w3.org/1999/xlink" x="0px" y="0px"
	 viewBox="0 0 360 360" style="enable-background:new 0 0 360 360;" xml:space="preserve">
<style type="text/css">
	.st0{fill:#FFFFFF;}
	.st1{fill:#383838;}
	.st2{fill:#A4A4A4;}
	.st3{fill:#CCCCCC;}
	.st4{fill:#EAEAEA;}
</style>
<g id="XMLID_18_">
	<path id="XMLID_219_" class="st0" d="M184.8,307.1c-0.1-0.5-0.3-0.8-0.3-1.1c-0.1-1.8,0-3.5,0.5-5.2c0.1-0.5,0.2-1,0.3-1.5
		c0.1-0.4,0.1-0.9,0.7-1.2c0.1,0.3,0.2,0.5,0.2,0.7c0.1,1.3,0.1,2.7-0.2,4c-0.1,0.7-0.1,1.3-0.2,2
		C185.7,305.5,185.5,306.3,184.8,307.1z"/>
	<g id="XMLID_17_">
		<path id="XMLID_223_" class="st0" d="M183.2,153.3c0.6,0.2,0.5,0.7,0.6,1.1c0.1,0.5,0,1,0.1,1.5c0.1,0.7,0.6,1.1,1.2,1.1
			c0.6,0,1.3-0.1,1.9-0.3c0.6-0.2,1.1-0.5,1.6-0.7c0.6-0.3,1.1-0.8,1.4-1.4c0.5-1.3,1.5-2.2,2.3-3.1c0.2-0.3,0.6-0.5,1-0.6
			c0.7-0.2,1.2,0,1.6,0.7c0.5,1.1,1,2.2,1.5,3.3c0.3,0.6,0.7,0.8,1.3,0.8c0.9,0,1.5-0.5,2.1-1c1.1-1,2.2-2.1,3.5-3
			c1.6-1.2,3.3-2.3,5-3.5c0.4-0.3,0.8-0.7,1.4-0.5c0.4,0.8,0.1,1.5-0.4,2.1c-0.7,1-1.4,2-2.3,2.8c-1.2,1-2.2,2.2-3.4,3.3
			c-0.4,0.3-0.8,0.7-1.2,0.9c-1.2,0.5-2.2,1.1-3.2,1.8c-0.7,0.6-1.6,1-2.4,1.3c-0.8,0.4-1.7,0.7-2.6,1c-0.8,0.2-1.6,0.4-2.4,0.4
			c-1.6,0.1-3.3,0-4.9,0c-1.2,0-2.2-0.3-3.3-0.8c-0.7-0.3-1.4-0.4-2.1-0.5c-0.7-0.1-1.3-0.1-2-0.1c-1.4,0-2.5-0.6-3.5-1.6
			c-0.7-0.6-1.2-1.3-1.3-2.2c0-0.4-0.3-0.8-0.5-1.1c-0.8-1.1-1.4-2.2-1.7-3.5c-0.2-0.7-0.4-1.4-0.6-2.1c-0.3-1.2-0.8-2.3-1.6-3.3
			c-0.5-0.5-0.7-1.1-0.8-1.8c-0.1-1.4-0.3-2.8-0.4-4.1c0-0.4,0-0.8,0.1-1.1c0.3-1.1,1.5-1.7,2.5-1.1c1.9,1.2,3.8,2.2,5.1,4.3
			c0.9,1.4,2.2,2.6,3.3,3.8c1,1,1.4,2.3,1.9,3.6c0.2,0.4,0,1-0.2,1.5c-0.3,0.7-0.3,1.4-0.1,2.1c0.1,0.6,0.1,1.2,0.1,1.9
			c0,0.8,0.1,1.3,0.5,1.3c0.4,0,0.6-0.4,0.7-1.2c0-0.4,0-0.9,0.1-1.3C182.9,153.8,183.1,153.6,183.2,153.3z"/>
		<path id="XMLID_222_" class="st0" d="M189.6,192.4c-1.3-0.4-2.3-1.5-3.9-1.2c0.2,0.5,0.5,0.8,0.6,1.2c0.1,0.2,0,0.5-0.1,0.7
			c-0.1,0.1-0.4,0-0.6-0.1c-0.5-0.5-0.9-1-1.3-1.6c-0.1-0.3-0.1-0.8,0.1-1c0.4-0.5,0.4-1.1,0.5-1.7c0.1-0.7,0.3-1.4,0.5-2.1
			c0.3-0.9,0.9-1,1.7-0.6c0.4,0.2,0.8,0.5,1.2,0.7c0.2,0.1,0.6,0.1,0.7-0.1c0.1-0.2,0.2-0.6,0.1-0.8c-0.2-0.4-0.6-0.7-0.9-1.1
			c-0.3-0.3-0.5-0.7-0.7-1c-0.1-0.2,0-0.5,0.2-0.7c0.1-0.1,0.5-0.1,0.7,0c0.7,0.5,1.4,1.1,1.4,2c0.1,2.2,0.6,4.4,0.1,6.6
			C189.8,191.8,189.7,192,189.6,192.4z"/>
		<path id="XMLID_221_" class="st0" d="M182.6,72.9c-1.3,1-2.7,1.3-4.2,1.4c-1.1,0.1-2.2,0-3.3,0c-0.9,0.1-1.8,0.2-2.7,0.3
			c-0.5,0.1-0.9,0.1-1.4,0.1c-0.5,0-0.7-0.4-0.5-0.9c0.5-1,1.3-1.7,2.4-1.9c2.4-0.7,4.9-1.1,7.5-0.6
			C181.4,71.6,181.9,71.9,182.6,72.9z"/>
		<path id="XMLID_220_" class="st0" d="M170.2,156.1c-0.2-0.1-0.8-0.3-1.2-0.6c-1.1-0.8-2.1-1.8-3.2-2.6c-1.1-0.8-1-2-1.2-3.1
			c0-0.4,0.4-0.7,0.8-0.4c0.3,0.2,0.6,0.5,0.8,0.8c0.8,1.4,1.9,2.4,3.5,2.9c0.8,0.2,1.5,0.8,1.8,1.6
			C171.9,155.6,171.5,156.1,170.2,156.1z"/>
		<path id="XMLID_218_" class="st0" d="M187.2,247.3c-0.3-0.9-0.6-4.4-0.5-5.2c0.1-0.4,0.1-0.9,0.6-1c0.4-0.1,0.9,0.3,1,0.9
			c0.2,1.4,0,2.8-0.5,4.1C187.6,246.5,187.4,246.9,187.2,247.3z"/>
		<path id="XMLID_217_" class="st0" d="M212.6,75.1c-0.7,0-1.2-0.3-1.2-0.8c0-0.5,0.5-1,1.1-1c0.7,0,1.4,0.5,1.3,1.1
			C213.7,74.8,213.2,75.1,212.6,75.1z"/>
	</g>
	<path id="XMLID_216_" class="st0" d="M184.6,342.7c0.4,0.4,0.3,0.7,0.1,1c-0.1,0.1-0.4,0-0.4-0.1
		C184.1,343.3,184.2,342.9,184.6,342.7z"/>
	<g id="XMLID_16_">
		<path id="XMLID_224_" class="st0" d="M212,77.3c1.2,0.4,1.7,1.2,1.8,2.2c0.1,0.8,0.1,1.6,0.2,2.4c0.1,1.1,0.7,2,2,2
			c0.9,0,1.3,0.6,1.5,1.4c0.6,2,0.6,4.1,0.3,6.2c-0.3,2.2-0.6,4.4-0.9,6.5c-0.2,1.3-0.4,2.7-0.7,4c-0.2,0.8-0.5,1.6-0.9,2.4
			c-0.7,1.2-1,2.5-1.3,3.8c-0.2,1.3-0.7,2.6-1.1,3.9c-0.6,1.7-1.1,3.3-2.2,4.6c-0.1,0.1-0.1,0.2-0.2,0.3c-0.4,1.9-1.3,3.6-2.1,5.3
			c-0.4,1-0.9,1.9-1.6,2.7c-0.4,0.5-0.9,0.9-1.2,1.4c-1.1,1.5-2.7,2-4.4,2.3c-1.2,0.2-2.4,0.2-3.7,0c-2.4-0.4-4.9-0.5-7.3-0.2
			c-1.6,0.2-3.3,0.1-4.9-0.6c-0.9-0.4-1.7-0.9-2.4-1.6c-0.4-0.4-0.9-0.7-1.4-1c-0.7-0.4-1.4-0.8-2.1-1.1c-0.3-0.1-0.6-0.3-0.7-0.5
			c-1.1-1.7-3-2.3-4.4-3.5c-0.2-0.2-0.5-0.3-0.7-0.5c-1.5-1.8-3.6-2.9-5.1-4.7c-1.1-1.4-2.4-2.7-2.8-4.4c0-0.1,0-0.2-0.1-0.2
			c-1.1-2.1-1.3-4.1-0.2-6.3c0.7-1.4,0.7-3,0.4-4.6c-0.3-2-0.5-4-0.5-6.1c0-3.4-0.4-6.8,0.3-10.1c0.3-1.3,0.7-2.4,1.6-3.4
			c0.6-0.6,1.2-0.9,2-0.5c0.7,0.3,1.5,0.3,2.2,0.1c0.3-0.1,0.7-0.1,1-0.1c0.8,0.1,1.5,0,2.2-0.3c0.8-0.4,1.7-0.3,2.4,0.1
			c0.5,0.2,0.9,0.5,1.3,0.8c1.5,0.8,3.2-0.1,3.4-1.8c0-0.4,0-0.8,0.1-1.1c0.2-0.8,0.7-1.1,1.4-0.6c0.5,0.4,1.1,0.9,1.5,1.4
			c0.6,0.7,1.3,1,2.2,1.1c0.7,0.1,1.3,0,1.7-0.6c0.5-0.6,1.1-0.8,1.9-0.9c1.6-0.1,2-0.9,1.5-2.4c-0.3-0.8-0.5-1.5-0.6-2.3
			c-0.2-1.2-0.7-2-1.8-2.5c-2.1-1-4.2-1.7-6.6-1.6c-1.1,0-2.1,0-3.2,0c-0.9,0.1-1.8,0.2-2.7,0.4c-0.5,0.1-0.9,0.2-1.4,0.2
			c-1.3,0.1-2.7,0.1-4,0.1c-0.4,0-0.8-0.1-1.2-0.2c-0.6-0.2-0.8-0.6-0.5-1.2c0.6-1.7,0.5-3.5,0.8-5.2c0.2-1.1,0.4-2.2,0.8-3.3
			c0.3-0.8,0.7-1.6,1-2.5c0.3-0.7,0.8-1.2,1.4-1.6c1.2-0.6,2.1-1.6,2.8-2.7c0.8-1.1,1.7-2.2,2.6-3.3c1-1.2,2.4-1.7,3.8-2.1
			c0.7-0.2,1.4-0.3,2.1-0.4c0.4-0.1,0.8-0.1,1.1-0.3c2.6-1.2,5.4-0.7,8.1-0.6c1.1,0,2.3,0.1,3.4-0.1c0.8-0.2,1.7-0.1,2.5-0.2
			c0.6,0,1.2,0,1.8,0c0.1,0,0.3,0,0.4,0c2.4,0.7,4.9,0.9,7,2.7c1.6,1.4,3,2.9,4.1,4.7c0.4,0.6,0.6,1.3,0.7,2c0.2,1,0.3,1.9,0.9,2.8
			c0.2,0.3,0.3,0.8,0.4,1.2c0.3,1,0.5,2,0.9,3c0.2,0.5,0.4,1,0.2,1.6c-0.4,1.1-0.2,2.2,0.2,3.2c0.6,1.9,0.2,2.5-1.8,2.6
			c-0.4,0-0.8,0-1.1,0c-0.5,0-0.9-0.1-1.4,0c-2,0.3-4.1,0.7-6.1,1.1c-0.6,0.1-1.1,0.4-1.6,0.7c-0.9,0.5-1.7,1.1-2.5,1.7
			c-0.3,0.2-0.6,0.6-0.7,1c-0.2,0.9-0.4,1.7-0.5,2.6c-0.1,0.6,0.1,1.1,0.4,1.5c0.3,0.3,0.6,0.7,0.9,1.1c0.7,0.8,1.3,1,2.2,0.6
			c0.9-0.4,1.5-0.3,2.2,0.3c0.4,0.3,0.9,0.5,1.3,0.8c1.4,0.7,2.5,0,3-1.3c0.1-0.4,0.1-0.7,0.2-1.1C211.9,78.1,211.9,77.8,212,77.3z
			 M190.4,106.6c-1.7-0.2-3.4,0.4-5.2,0.6c-0.2,0-0.5,0.1-0.7,0.3c-0.4,0.3-0.4,0.6-0.2,1c0.2,0.2,0.4,0.4,0.7,0.6
			c1.3,0.9,2.7,1.3,4.3,1.3c1.1,0,2.2,0,3.3,0.1c2.3,0.3,4.5,0.7,6.8,0.7c0.5,0,1.1,0.1,1.6,0.2c1.7,0.3,3.3,0.7,5,0.9
			c1,0.1,1.6-0.2,2-1c0.4-0.9,0.4-2-0.3-2.5c-1.2-0.9-2.3-1.8-3.9-2c-0.7-0.1-1.4-0.2-2.1-0.4c-2.1-0.9-4.3-0.8-6.5-0.4
			C193.7,106.4,192.1,106.5,190.4,106.6z M194,94c-0.2,0.1-0.8,0.2-1.2,0.5c-0.9,0.6-0.7,1.5,0.3,1.9c1.5,0.5,2.8,1.4,4.3,1.7
			c0.4,0.1,0.7,0.3,1,0.5c0.7,0.5,1.3,0.5,2,0.1c0.8-0.5,1.6-0.6,2.6-0.4c0.9,0.2,1.4-0.1,1.8-0.9c0.4-0.8,0.6-1.6-0.1-2.4
			c-0.6-0.7-1.3-0.9-2.2-0.6c-0.3,0.1-0.6,0.3-0.9,0.4c-0.9,0.3-2,0.5-2.8,0C197.4,94.1,195.8,94.2,194,94z M208.4,84.1
			c0-0.6-0.7-1.2-1.3-1.2c-0.4,0-0.6,0.2-0.6,0.6c0,0.6,0.7,1.1,1.3,1.1C208.2,84.6,208.4,84.5,208.4,84.1z"/>
		<g id="XMLID_15_">
			<g id="XMLID_14_">
				<g id="XMLID_13_">
					<path id="XMLID_215_" d="M188.1,106.6c1.7-0.1,3.2-0.2,4.8-0.6c2.1-0.4,4.3-0.6,6.5,0.4c0.6,0.3,1.4,0.4,2.1,0.4
						c1.6,0.1,2.7,1.1,3.9,2c0.7,0.5,0.7,1.6,0.3,2.5c-0.4,0.8-1,1.2-2,1c-1.7-0.2-3.3-0.6-5-0.9c-0.5-0.1-1.1-0.3-1.6-0.2
						c-2.3,0.1-4.5-0.4-6.8-0.7c-1.1-0.1-2.2-0.1-3.3-0.1c-1.6,0-3-0.4-4.3-1.3c-0.2-0.2-0.5-0.3-0.7-0.6c-0.3-0.4-0.2-0.7,0.2-1
						c0.2-0.1,0.5-0.3,0.7-0.3C184.7,107,186.4,106.4,188.1,106.6z"/>
					<g id="XMLID_11_">
						<g id="XMLID_10_">
							<g id="XMLID_7_">
								<path id="XMLID_1_" class="st1" d="M196.8,28.9c0,0-10.2-3.5-12.2-4.2s-16.5,2.1-29.6,15.5c1.6,5.2,8.6-1.3,8.6-1.3
									s0.9,7.7,16.8-3.4L196.8,28.9z"/>
								<g id="XMLID_6_">
									<g id="XMLID_4_">
										<path id="XMLID_5_" class="st2" d="M212.9,58.9c0,0-7.1-16.9-16.5-8.4c-3.5,3-8.8-0.6-8.8-0.6s-5.6-1.6-9.8,3.6
											c-1.5,2.6-3.4,3.8-5.9,5.4c0,0-2.1,8.1-1.5,10s-3.9,1.4-3.9,1.4l3-22.1l28.8-7.9l17.5,9l0.7,8.8L212.9,58.9z"/>
										<path id="XMLID_12_" class="st3" d="M159.4,77.4l-0.6,20.3l5.2,24.1l16.5,4.2l-1.2-5.2l-4.2-8.4c0.1-1.4-3.1-7.9-3.1-7.9
											s-3.9-1.1-5.5-3.1s-0.6-16.7-0.6-16.7s0.3-3,1.7-3c-0.1-1.3-0.2-2.5-0.4-3.8L159.4,77.4z"/>
									</g>
									<g id="XMLID_3_">
										<path id="XMLID_8_" class="st4" d="M204.7,120.8c0,0-5.4-2-6.3-3.1c-0.6-0.7-3.3-0.8-5-0.9c-0.9,0-1.6,0.7-1.7,1.6
											l-0.1,0.7c-0.1,0.9,0.6,1.8,1.6,1.9l10.9,0.8L204.7,120.8z"/>
										<path id="XMLID_9_" class="st4" d="M202.8,96.2c0,0,1.5-0.3,1.3,1.8c-0.2,2.2-4,2.5-4,2.5l-5.7-0.5l-4.2-1.2
											c-0.6-0.2-1.1-0.8-1.1-1.4l0,0c0-0.4,0.3-0.8,0.6-0.9l2.2-0.7L202.8,96.2z"/>
									</g>
								</g>
							</g>
							<path id="XMLID_34_" d="M186.4,181c4,0,9-3,14-2c11,2,14,13,22,19c15,12,35.1,11.6,53.9,7.3c0-2,0-3.9,0-5.9
								c0-2.7-0.1-5.4-0.6-8.1c-0.4-2.6-0.6-5.2-0.9-7.8c-0.4-3.1-0.7-6.1-1.2-9.2c-0.5-3.1-1.3-6.1-3-8.8c-1.2-2-2-4.3-2.6-6.6
								c-0.5-1.8-1.2-3.5-2.1-5.2c-0.8-1.5-1.8-3-3.6-3.6c-0.3-0.1-0.5-0.3-0.6-0.6c-1-1.6-2.5-2.6-4.1-3.3
								c-3.3-1.4-6.5-2.9-9.7-4.5c-1.7-0.8-3.5-1.3-5.2-2c-0.8-0.3-1.6-0.6-2.3-1.1c-0.6-0.4-1.2-0.6-1.9-0.7
								c-0.5-0.1-1.1-0.3-1.6-0.4c-0.4-0.2-0.8-0.4-1.3-0.5c-1.6-0.4-2.9-1.4-4.3-2.2c-0.5-0.3-1-0.5-1.6-0.8
								c-0.3-0.2-0.7-0.2-1.1-0.4c-2.3-0.8-3.1-2.7-3.3-5c-0.1-1.3-0.1-2.6,0-3.9c0.1-4.3-0.3-8.6-0.6-12.9
								c-0.3-5.1-0.3-10.3,0.4-15.4c0.4-3.1,0.8-6.1,0.7-9.2c-0.1-3.8,0-7.5,0-11.3c0-1.6-0.2-3.3-0.2-4.9c-0.1-2.2-0.2-4.5-0.3-6.7
								c-0.1-1.1-0.1-2.2-0.3-3.3c-0.7-2.9-1.3-5.9-2.3-8.7c-0.8-2.5-1.8-4.9-3-7.3c-1.3-2.5-2.8-4.9-4.9-6.9
								c-1.1-1-2.1-2.2-3.2-3.2c-2.9-2.8-6.4-4.5-10.5-4.9c-0.7-0.1-1.4-0.2-2.1-0.5c-1.6-0.7-3.2-1-4.9-0.9
								c-1.1,0.1-2.3-0.1-3.4,0.1c-1.1,0.2-2,0.7-3.1,1.2c-1.4,0.6-2.8,1.2-4.2,1.8c-0.3,0.1-0.7,0.3-1,0.5c-0.7,0.4-1.4,1-2.1,1.4
								c-1,0.5-1.9,1-2.7,1.8c-0.3,0.3-0.8,0.6-1.3,0.7c-0.8,0.2-1.4,0.6-1.8,1.3c-0.3,0.6-0.9,0.9-1.5,1c-1.2,0.1-2.3,0.6-3.3,1.2
								c-0.3,0.2-0.6,0.3-0.9,0.5c-1.6,0.9-2.2,0.8-3.2-0.8c-0.2-0.3-0.3-0.6-0.4-0.9c-0.4-0.7-0.7-1-1.4-0.8
								c-2.1,0.7-4.3,1.2-5.8,2.9c-0.1,0.2-0.3,0.3-0.5,0.4c-0.7,0.5-1,0.5-1.4-0.3c-0.1-0.1-0.1-0.3-0.2-0.5
								c-0.3-0.4-0.7-0.5-1.1-0.1c-0.4,0.4-0.7,0.9-1,1.5c-1.2,2.1-2.4,4.3-3.7,6.4c-1,1.8-1.9,3.6-2.3,5.6c-0.2,1.1-0.8,2.1-1.2,3
								c-0.7,1.5-1,3.1-1.4,4.7c-0.6,2.6-1.2,5.3-1.7,7.9c-0.7,3.9-1.6,7.9-1.6,11.9c0,1.1-0.3,2.3-0.4,3.4
								c-0.1,2.3-0.3,4.6-0.3,6.8c0,2.5-0.1,5-0.4,7.5c-0.1,0.7-0.1,1.3-0.1,2c0,2.6,0,5.2,0,7.9c-0.1,2.3-0.2,4.6-0.4,7
								c0,0.7-0.1,1.4-0.1,2.2c-0.1,2.7-0.2,5.5-0.2,8.2c0,1.2-0.5,2.2-1.3,3.1c-0.6,0.6-1.1,1.3-1.6,2c-0.9,1.3-2.3,1.9-3.7,2.4
								c-1.9,0.7-3.7,1.3-5.2,2.7c-0.7,0.7-1.7,0.9-2.7,0.8c-0.8-0.1-1.5,0.1-2.2,0.4c-1.7,0.6-3.4,1.2-5.1,1.7
								c-0.8,0.2-1.6,0.3-2.4,0.3c-0.9,0-1.8,0.2-2.7,0.6c-2.6,1.1-5.3,2.1-7.9,3.2c-1,0.4-1.8,1-2.7,1.6c-0.5,0.3-1,0.7-1.6,1.1
								c-1.9,1.1-3.4,2.6-4.7,4.3c-1.4,1.8-2.8,3.5-4.2,5.2c-0.2,0.2-0.4,0.4-0.5,0.7c-1.2,2.1-2.8,3.8-4.2,5.7
								c-0.2,0.2-0.3,0.5-0.6,0.7c-2.3,2.3-3.7,5.2-4.7,8.2c-0.9,2.8-1.8,5.6-2.5,8.5c-0.7,3-1.1,6.2-1.6,9.2
								c-0.3,1.5-0.5,3-0.8,4.5c-0.3,1.7-0.8,3.3-0.9,5c-0.1,0.8-0.1,1.7-0.2,2.5c3.2-2.9,6.9-5.1,10.4-6.5
								C118.4,181,152.4,180,186.4,181z M169.4,156.1c-0.2-0.1-0.8-0.3-1.2-0.6c-1.1-0.8-2.1-1.8-3.2-2.6c-1.1-0.8-1-2-1.2-3.1
								c0-0.4,0.4-0.7,0.8-0.4c0.3,0.2,0.6,0.5,0.8,0.8c0.8,1.4,1.9,2.4,3.5,2.9c0.8,0.2,1.5,0.8,1.8,1.6
								C171,155.6,170.7,156.1,169.4,156.1z M208.4,149.9c-0.7,1-1.4,2-2.3,2.8c-1.2,1-2.2,2.2-3.4,3.3c-0.4,0.3-0.8,0.7-1.2,0.9
								c-1.2,0.5-2.2,1.1-3.2,1.8c-0.7,0.6-1.6,1-2.4,1.3c-0.8,0.4-1.7,0.7-2.6,1c-0.8,0.2-1.6,0.4-2.4,0.4c-1.6,0.1-3.3,0-4.9,0
								c-1.2,0-2.2-0.3-3.3-0.8c-0.7-0.3-1.4-0.4-2.1-0.5c-0.7-0.1-1.3-0.1-2-0.1c-1.4,0-2.5-0.6-3.5-1.6c-0.7-0.6-1.2-1.3-1.3-2.2
								c0-0.4-0.3-0.8-0.5-1.1c-0.8-1.1-1.4-2.2-1.7-3.5c-0.2-0.7-0.4-1.4-0.6-2.1c-0.3-1.2-0.8-2.3-1.6-3.3
								c-0.5-0.5-0.7-1.1-0.8-1.8c-0.1-1.4-0.3-2.8-0.4-4.1c0-0.4,0-0.8,0.1-1.1c0.3-1.1,1.5-1.7,2.5-1.1c1.9,1.2,3.8,2.2,5.1,4.3
								c0.9,1.4,2.2,2.6,3.3,3.8c1,1,1.4,2.3,1.9,3.6c0.2,0.4,0,1-0.2,1.5c-0.3,0.7-0.3,1.4-0.1,2.1c0.1,0.6,0.1,1.2,0.1,1.9
								c0,0.8,0.1,1.3,0.5,1.3c0.4,0,0.6-0.4,0.7-1.2c0-0.4,0-0.9,0.1-1.3c0-0.3,0.2-0.5,0.4-0.7c0.6,0.2,0.5,0.7,0.6,1.1
								c0.1,0.5,0,1,0.1,1.5c0.1,0.7,0.6,1.1,1.2,1.1c0.6,0,1.3-0.1,1.9-0.3c0.6-0.2,1.1-0.5,1.6-0.7c0.6-0.3,1.1-0.8,1.4-1.4
								c0.5-1.3,1.5-2.2,2.3-3.1c0.2-0.3,0.6-0.5,1-0.6c0.7-0.2,1.2,0,1.6,0.7c0.5,1.1,1,2.2,1.5,3.3c0.3,0.6,0.7,0.8,1.3,0.8
								c0.9,0,1.5-0.5,2.1-1c1.1-1,2.2-2.1,3.5-3c1.6-1.2,3.3-2.3,5-3.5c0.4-0.3,0.8-0.7,1.4-0.5
								C209.2,148.6,208.8,149.3,208.4,149.9z M163.8,99.3c-0.3-2-0.5-4-0.5-6.1c0-3.4-0.4-6.8,0.3-10.1c0.3-1.3,0.7-2.4,1.6-3.4
								c0.6-0.6,1.2-0.9,2-0.5c0.7,0.3,1.5,0.3,2.2,0.1c0.3-0.1,0.7-0.1,1-0.1c0.8,0.1,1.5,0,2.2-0.3c0.8-0.4,1.7-0.3,2.4,0.1
								c0.5,0.2,0.9,0.5,1.3,0.8c1.5,0.8,3.2-0.1,3.4-1.8c0-0.4,0-0.8,0.1-1.1c0.2-0.8,0.7-1.1,1.4-0.6c0.5,0.4,1.1,0.9,1.5,1.4
								c0.6,0.7,1.3,1,2.2,1.1c0.7,0.1,1.3,0,1.7-0.6c0.5-0.6,1.1-0.8,1.9-0.9c1.6-0.1,2-0.9,1.5-2.4c-0.3-0.8-0.5-1.5-0.6-2.3
								c-0.2-1.2-0.7-2-1.8-2.5c-2.1-1-4.2-1.7-6.6-1.6c-1.1,0-2.1,0-3.2,0c-0.9,0.1-1.8,0.2-2.7,0.4c-0.5,0.1-0.9,0.2-1.4,0.2
								c-1.3,0.1-2.7,0.1-4,0.1c-0.4,0-0.8-0.1-1.2-0.2c-0.6-0.2-0.8-0.6-0.5-1.2c0.6-1.7,0.5-3.5,0.8-5.2c0.2-1.1,0.4-2.2,0.8-3.3
								c0.3-0.8,0.7-1.6,1-2.5c0.3-0.7,0.8-1.2,1.4-1.6c1.2-0.6,2.1-1.6,2.8-2.7c0.8-1.1,1.7-2.2,2.6-3.3c1-1.2,2.4-1.7,3.8-2.1
								c0.7-0.2,1.4-0.3,2.1-0.4c0.4-0.1,0.8-0.1,1.1-0.3c2.6-1.2,5.4-0.7,8.1-0.6c1.1,0,2.3,0.1,3.4-0.1c0.8-0.2,1.7-0.1,2.5-0.2
								c0.6,0,1.2,0,1.8,0c0.1,0,0.3,0,0.4,0c2.4,0.7,4.9,0.9,7,2.7c1.6,1.4,3,2.9,4.1,4.7c0.4,0.6,0.6,1.3,0.7,2
								c0.2,1,0.3,1.9,0.9,2.8c0.2,0.3,0.3,0.8,0.4,1.2c0.3,1,0.5,2,0.9,3c0.2,0.5,0.4,1,0.2,1.6c-0.4,1.1-0.2,2.2,0.2,3.2
								c0.6,1.9,0.2,2.5-1.8,2.6c-0.4,0-0.8,0-1.1,0c-0.5,0-0.9-0.1-1.4,0c-2,0.3-4.1,0.7-6.1,1.1c-0.6,0.1-1.1,0.4-1.6,0.7
								c-0.9,0.5-1.7,1.1-2.5,1.7c-0.3,0.2-0.6,0.6-0.7,1c-0.2,0.9-0.4,1.7-0.5,2.6c-0.1,0.6,0.1,1.1,0.4,1.5
								c0.3,0.3,0.6,0.7,0.9,1.1c0.7,0.8,1.3,1,2.2,0.6c0.9-0.4,1.5-0.3,2.2,0.3c0.4,0.3,0.9,0.5,1.3,0.8c1.4,0.7,2.5,0,3-1.3
								c0.1-0.4,0.1-0.7,0.2-1.1c0-0.3,0.1-0.6,0.1-1c1.2,0.4,1.7,1.2,1.8,2.2c0.1,0.8,0.1,1.6,0.2,2.4c0.1,1.1,0.7,2,2,2
								c0.9,0,1.3,0.6,1.5,1.4c0.6,2,0.6,4.1,0.3,6.2c-0.3,2.2-0.6,4.4-0.9,6.5c-0.2,1.3-0.4,2.7-0.7,4c-0.2,0.8-0.5,1.6-0.9,2.4
								c-0.7,1.2-1,2.5-1.3,3.8c-0.2,1.3-0.7,2.6-1.1,3.9c-0.6,1.7-1.1,3.3-2.2,4.6c-0.1,0.1-0.1,0.2-0.2,0.3
								c-0.4,1.9-1.3,3.6-2.1,5.3c-0.4,1-0.9,1.9-1.6,2.7c-0.4,0.5-0.9,0.9-1.2,1.4c-1.1,1.5-2.7,2-4.4,2.3c-1.2,0.2-2.4,0.2-3.7,0
								c-2.4-0.4-4.9-0.5-7.3-0.2c-1.6,0.2-3.3,0.1-4.9-0.6c-0.9-0.4-1.7-0.9-2.4-1.6c-0.4-0.4-0.9-0.7-1.4-1
								c-0.7-0.4-1.4-0.8-2.1-1.1c-0.3-0.1-0.6-0.3-0.7-0.5c-1.1-1.7-3-2.3-4.4-3.5c-0.2-0.2-0.5-0.3-0.7-0.5
								c-1.5-1.8-3.6-2.9-5.1-4.7c-1.1-1.4-2.4-2.7-2.8-4.4c0-0.1,0-0.2-0.1-0.2c-1.1-2.1-1.3-4.1-0.2-6.3
								C164,102.6,164,100.9,163.8,99.3z M169.6,73.9c0.5-1,1.3-1.7,2.4-1.9c2.4-0.7,4.9-1.1,7.5-0.6c1,0.2,1.6,0.5,2.2,1.5
								c-1.3,1-2.7,1.3-4.2,1.4c-1.1,0.1-2.2,0-3.3,0c-0.9,0.1-1.8,0.2-2.7,0.3c-0.5,0.1-0.9,0.1-1.4,0.1
								C169.6,74.8,169.4,74.4,169.6,73.9z M212.9,74.3c0,0.5-0.5,0.8-1.2,0.8c-0.7,0-1.2-0.3-1.2-0.8c0-0.5,0.5-1,1.1-1
								C212.3,73.2,212.9,73.8,212.9,74.3z"/>
						</g>
						<g id="XMLID_2_">
							<g id="XMLID_177_">
								<path id="XMLID_23_" d="M285.9,334.6c-0.3-0.8-0.3-1.7-0.3-2.6c0-2.7,0.2-5.5,0.1-8.2c-0.1-1.9-0.6-3.8-0.9-5.7
									c-0.4-2.5-0.6-4.9-1-7.4c-0.2-1.4-0.4-2.8-2-3.6c-0.4-0.2-0.9-1.1-0.8-1.5c0.6-2.2,0.2-4.6,1.5-6.6c0.1-0.1,0.2-0.3,0.4-0.6
									c0.5,1.3,0.6,2.5,0.4,3.7c-0.1,0.5-0.3,1-0.2,1.4c0.1,0.4,0.6,0.8,0.9,1.2c0.4-0.3,0.8-0.6,1.1-1c0.2-0.2,0.1-0.7,0.1-1
									c-0.1-2.5,0.2-4.9-0.6-7.4c-0.5-1.7-0.1-3.7-0.2-5.5c-0.1-2-0.1-4.1-1.5-5.9c-0.5-0.6-0.5-1.2,0.3-1.7
									c0.3-0.3,0.6-0.8,0.7-1.3c0.1-0.7,0.1-1.4,0-2c-0.5-5.1-0.8-10.3-1.5-15.4c-0.3-2.4-0.6-4.7-0.5-7.1
									c0.1-3.1-0.3-6.2-0.5-9.2c-0.1-1.2-0.3-2.2-1.5-2.8c-0.9-0.4-0.6-1.4-0.5-2.2c0.3-1.5,0.6-3.1,0.8-4.6c0.1-1,0-2-1-2.7
									c-0.2-0.2-0.4-0.6-0.4-0.9c0.1-1.8,0.3-3.6,0.4-5.4c0.1-1.4,0.1-2.9-0.1-4.3c-0.2-2-0.5-4.1-0.9-6.1c-0.2-1-0.4-2.1-0.8-3.1
									c-0.8-1.8-1.1-3.7-1.1-5.7c0-4.6,0.1-9.2-0.3-13.8c-0.5-5.8-1.4-11.7-2.1-17.5c-0.1-0.9-0.3-1.6-1.2-2.1
									c-0.4-0.2-0.5-1-0.5-1.5c0-1.1-0.3-1.8-1.3-2.2c-2-0.7-2.2-1.3-0.9-3c0.1-0.1,0.1-0.2,0.2-0.4c-0.3-0.3-0.6-0.5-1-0.8
									c0.1-0.2,0.2-0.3,0.3-0.4c1.2-1,1.1-1.2-0.1-2.1c-0.5-0.4-1-1.2-1.1-1.8c-0.3-2-2.2-3-4-1.9c-0.6,0.3-1.2,0.8-1.5,1.3
									c-0.8,1.3-2.1,1.6-3.4,2.1c-1.2,0.4-1.9-0.1-2.1-1.3c-0.1-0.4-0.1-0.8-0.2-1.2c-0.5-2-1.3-2.6-3.3-2.4
									c-0.4,0-0.9,0.3-1.1,0.7c-0.1,0.2,0.2,0.9,0.4,1c0.9,0.6,1.1,1.4,1.1,2.4c-0.1,1.5-0.2,3-0.3,4.4c0,0.3-0.4,0.6-0.7,0.9
									c-0.2-0.3-0.6-0.6-0.7-0.9c-0.1-0.5,0-1-0.2-1.5c-0.2-0.5-0.5-1.2-0.9-1.3c-0.6-0.2-1.3,0-1.9,0.3c-0.8,0.4-1.4,1.1-2.1,1.7
									c-0.2,0.2-0.4,0.3-0.5,0.6c-0.3,1.5-1.4,1.8-2.6,2.2c-0.5,0.8-1,1.5-1.5,2.3c0.2,0.2,0.4,0.3,0.6,0.5c0.3,0.2,0.6,0.7,0.6,1
									c0,0.3-0.5,0.7-0.8,0.8c-0.9,0.2-1.3,0.7-1.6,1.6c-0.1,0.4-0.6,0.8-1,0.9c-0.7,0.2-1.5,0.2-2.3,0c-0.2,0-0.5-0.2-0.7-0.4
									c-8.3,4.9-18,5.8-27.2,2.7c-21.7-6.9-42.8-11.6-63.4-21.7c-0.1,0-0.1-0.1-0.1-0.2l-16.1-2.6c-0.2,0.9-0.2,1.9-0.5,2.8
									c-0.1,0.5-0.5,1.4-0.9,1.4c-0.6,0.1-1.3-0.3-1.9-0.6c-0.7-0.3-1.3-0.9-1.9-0.9c-1.9,0-3.8,0.2-5.7,0.3
									c-1.7,0.1-3.5,0.1-5.2,0.1c-0.5,0-1-0.4-1.4-0.8c-1-0.9-2.1-0.6-2.3,0.7c-0.2,1.3-0.1,2.5,1.1,3.4c1.4,1.1,1.2,2.3-0.3,3.2
									c-0.3,0.2-0.7,0.4-1,0.6c-0.9,0.7-0.9,1.6,0.1,2.2c1,0.7,1,1.3,0.3,2.2c-0.4,0.6-0.7,1.3-1.1,1.9c-0.3,0.4-0.7,0.9-1.1,0.9
									c-0.4,0-1-0.4-1.1-0.8c-0.4-1.1-1.2-1.9-1.9-2.8c-0.5-0.6-0.7-1.7-0.8-2.6c-0.3-2.4-0.7-4.7-2.6-6.4
									c-0.6-0.6-0.9-1.4-1.5-2.1c-0.2-0.2-0.6-0.5-0.8-0.5c-0.2,0-0.5,0.5-0.5,0.7c-0.2,1.2-0.3,2.4-0.6,3.5
									c-0.4,1.6-1,3.2-1.5,4.8c-0.1,0.3-0.6,0.5-0.9,0.5c-0.3,0-0.6-0.4-0.8-0.7c-0.1-0.1-0.1-0.3-0.1-0.5
									c-0.2-2.2-0.4-2.3-2.2-1.1c-0.8,0.5-1.5,0.3-2.2-0.2c-0.6-0.4-1.1-0.9-1.8-1.2c-0.9-0.5-1.6-0.3-2.1,0.7
									c-0.5,1-1.2,2-1.8,2.9c-0.3,0.3-0.7,0.5-1.2,0.7c-1.6,0.6-2,1.7-1.1,3.2c0.9,1.5,1.3,3.2,0.4,4.9c-0.3,0.6-0.3,1.4-0.5,2
									c-0.1,0.5-0.3,0.9-0.6,1.3c-0.2,0.2-0.7,0.3-0.9,0.2c-0.2-0.1-0.3-0.5-0.4-0.8c0-0.5,0.1-0.9,0.1-1.4c0-0.2-0.2-0.5-0.4-0.7
									c-0.2,0.1-0.6,0.2-0.7,0.4c-0.4,1.4-0.8,2.8-1.1,4.2c0,0.2,0.5,0.8,0.8,0.9c1.2,0.5,1.9,1.9,1,2.8c-1.6,1.6-2.2,3.7-2.7,5.6
									c-0.8,3.1-1.8,6.2-1.5,9.5c0.1,0.8-0.3,1.7-0.6,2.6c-0.4,1.3-1,2.6-1.3,3.9c-0.4,2.6-0.5,5.3-0.8,7.9
									c-0.3,2.2-0.8,4.3-1.2,6.5c-0.2,1-0.1,2.1-0.1,3.1c0,0.5,0.1,1,0,1.4c-1.1,3.2-0.3,6.5-0.3,9.8c0,0.5,0,1.1,0,1.6
									c-0.2,2.4-0.4,4.9-0.6,7.3c-0.2,2.6-0.4,5.1-0.7,7.7c-0.6,4.6-1.2,9.2-1.8,13.8c-0.3,2.6-0.7,5.1-0.7,7.8
									c0.1,2.4-0.7,4.8-1,7.2c-0.4,3.8-0.9,7.7-0.9,11.5c-0.1,16.7,0,33.5,0,50.2c0,2.5,0,2.5,2.5,2.9c0.2,0,0.5,0.1,0.7,0.2
									c3.1,0,6.3,0,9.4,0c1,0,2,0,3,0c1.2,0,2.4,0,3.6,0c0.7-0.1,1.3-0.2,2-0.2c6.6,0,13.2,0,19.7,0c0.7,0,1.4,0.2,2.1,0.2
									c11.8,0,23.5,0,35.3,0c1.8,0,3.6,0,5.3,0c8.4,0,16.7,0,25.1,0c0.7,0,1.4,0,2,0c0.4,0,0.8,0,1.3,0c0.3-0.1,0.6-0.2,0.9-0.2
									c1.3,0,1.8-0.8,2.2-1.9c0.3-1,0.8-2,1.2-3c0.1-0.3,0.6-0.6,0.8-0.6c0.3,0,0.7,0.4,0.7,0.7c0.2,1,0.4,2,0.3,3
									c-0.1,1.5,0,1.7,1.5,1.8c2,0.1,3.9,0.2,5.9,0.3c3.3,0,6.6,0,9.9,0c1,0,2,0,3,0c1.9,0,3.9,0,5.8,0c0.8,0,1.7,0,2.5,0
									c2.5,0,5.1,0,7.6,0c0.8,0,1.7,0,2.5,0c2.5,0,5.1,0,7.6,0c1.7,0,3.4,0,5.1,0c3.5,0,6.9,0,10.4,0c0.5,0,1,0,1.5,0
									c3,0,5.9,0,8.9,0c1.5,0,3,0,4.6,0c3.4,0,6.8,0,10.2,0c1.1,0,2.2,0,3.3,0c1.4,0,2.7,0,4.1,0c1.7-0.1,3.4-0.2,5.2-0.3
									c1.6-0.1,1.9-0.3,1.9-2C287,340.4,286.8,337.4,285.9,334.6z M181.7,178.3c0.1-0.1,0.3-0.2,0.4-0.2c0.4,0.6,0.7,1.2,1.1,1.9
									c-0.2,0.1-0.3,0.2-0.5,0.3C182.4,179.5,182,178.9,181.7,178.3z M186.7,299.9c-0.5,3.4-1,6.8-1.5,10.1
									c-0.1,0.8-0.3,1.6-0.6,2.3c-0.1,0.4-0.6,0.6-0.9,0.9c-0.2-0.3-0.5-0.7-0.5-1c-0.3-4.3-0.4-8.7,0.7-13
									c0.3-1.2,0.5-2.5,0.9-3.7c0.1-0.4,0.6-0.6,0.9-0.9c0.2,0.4,0.6,0.7,0.7,1.1c0.2,1,0.3,2.1,0.3,3
									C186.7,299.2,186.7,299.5,186.7,299.9z M187.8,246.4c-0.3,0.9-0.5,1.8-0.5,2.7c-0.3,5.4-0.5,10.8-0.8,16.2
									c0,0.3-0.2,0.7-0.3,1c-0.1,0-0.3,0-0.4,0c-0.1-2.3-0.4-4.7-0.4-7c-0.1-4-0.2-7.9-0.2-11.9c0-2.3-0.1-4.6,0-7
									c0-0.7,0.3-1.5,0.6-2.2c0.1-0.3,0.6-0.7,0.9-0.7c0.3,0,0.8,0.4,0.9,0.7C188.3,240.9,188.6,243.6,187.8,246.4z M189.5,192.1
									c0,1-0.3,1.8-1.2,2.4c-1.4,1-1.4,1.4-0.6,3c0.2,0.4,0.4,0.8,0.4,1.2c0,2.6,0,5.2-0.1,7.8c0,1.7-0.1,3.4-0.2,5
									c-0.1,1.3-0.2,2.7-0.3,4c0,0.3-0.3,0.5-0.5,1c-0.3-0.7-0.6-1.1-0.6-1.6c-0.3-1.5-0.6-3-0.6-4.5c0-3.2-0.6-6.5,0.1-9.7
									c0.3-1.3,0.5-2.7,0.5-4c0-0.5-0.3-1-0.6-1.4c-1-1.3-2.1-2.6-3.1-3.8c-0.5-0.7-0.5-1.3,0-2.1c0.7-1.2,1.1-2.4,1.8-3.6
									c0.6-0.9,1.4-1.7,2.2-2.4c0.1-0.1,0.5,0,0.7,0.1c1.1,0.5,2.2,2.1,2.2,3.3C189.6,188.5,189.5,190.3,189.5,192.1z
									 M273.1,185.4c-0.6-1.3-0.3-2.6-0.1-4c0.1,1.3,0.3,2.6,0.4,3.9C273.3,185.4,273.2,185.4,273.1,185.4z"/>
								<path id="XMLID_31_" d="M244.1,170.7c-0.6,0.2-1.3,0.5-1.6,1c-0.2,0.5,0,0.9,0.3,1.2c0.5-0.7,1-1.5,1.5-2.3
									C244.3,170.6,244.2,170.6,244.1,170.7z"/>
								<path id="XMLID_274_" class="st0" d="M179.4,345.5c0.3-0.1,0.6-0.2,0.9-0.2c1.3,0,1.8-0.8,2.2-1.9c0.3-1,0.8-2,1.2-3
									c0.1-0.3,0.6-0.6,0.8-0.6c0.3,0,0.7,0.4,0.7,0.7c0.2,1,0.4,2,0.3,3c-0.1,1.5,0,1.7,1.5,1.8c2,0.1,3.9,0.2,5.9,0.3
									C188.3,345.5,183.9,345.5,179.4,345.5z"/>
								<path id="XMLID_273_" class="st0" d="M86.5,345.5c0.7-0.1,1.3-0.2,2-0.2c6.6,0,13.2,0,19.7,0c0.7,0,1.4,0.2,2.1,0.2
									C102.4,345.5,94.4,345.5,86.5,345.5z"/>
								<path id="XMLID_272_" class="st0" d="M145.6,345.5c1.8,0,3.6,0,5.3,0C149.2,345.5,147.4,345.5,145.6,345.5z"/>
								<path id="XMLID_271_" class="st0" d="M231.9,345.5c1.7,0,3.4,0,5.1,0C235.3,345.5,233.6,345.5,231.9,345.5z"/>
								<path id="XMLID_270_" class="st0" d="M257.8,345.5c1.5,0,3,0,4.6,0C260.8,345.5,259.3,345.5,257.8,345.5z"/>
								<path id="XMLID_269_" class="st0" d="M272.5,345.5c1.1,0,2.2,0,3.3,0C274.7,345.5,273.6,345.5,272.5,345.5z"/>
								<path id="XMLID_268_" class="st0" d="M79.9,345.5c1,0,2,0,3,0C81.9,345.5,80.9,345.5,79.9,345.5z"/>
								<path id="XMLID_267_" class="st0" d="M202.7,345.5c1,0,2,0,3,0C204.7,345.5,203.7,345.5,202.7,345.5z"/>
								<path id="XMLID_266_" class="st0" d="M211.6,345.5c0.8,0,1.7,0,2.5,0C213.3,345.5,212.4,345.5,211.6,345.5z"/>
								<path id="XMLID_265_" class="st0" d="M221.7,345.5c0.8,0,1.7,0,2.5,0C223.4,345.5,222.6,345.5,221.7,345.5z"/>
								<path id="XMLID_264_" class="st0" d="M176.1,345.5c0.7,0,1.4,0,2,0C177.4,345.5,176.7,345.5,176.1,345.5z"/>
								<path id="XMLID_263_" class="st0" d="M247.4,345.5c0.5,0,1,0,1.5,0C248.4,345.5,247.9,345.5,247.4,345.5z"/>
								<path id="XMLID_253_" class="st0" d="M187.1,216.5c-0.3-0.7-0.6-1.1-0.6-1.6c-0.3-1.5-0.6-3-0.6-4.5c0-3.2-0.6-6.5,0.1-9.7
									c0.3-1.3,0.5-2.7,0.5-4c0-0.5-0.3-1-0.6-1.4c-1-1.3-2.1-2.6-3.1-3.8c-0.5-0.7-0.5-1.3,0-2.1c0.7-1.2,1.1-2.4,1.8-3.6
									c0.6-0.9,1.4-1.7,2.2-2.4c0.1-0.1,0.5,0,0.7,0.1c1.1,0.5,2.2,2.1,2.2,3.3c0,1.8-0.1,3.5-0.1,5.3c0,1-0.3,1.8-1.2,2.4
									c-1.4,1-1.4,1.4-0.6,3c0.2,0.4,0.4,0.8,0.4,1.2c0,2.6,0,5.2-0.1,7.8c0,1.7-0.1,3.4-0.2,5c-0.1,1.3-0.2,2.7-0.3,4
									C187.6,215.8,187.4,216,187.1,216.5z"/>
								<path id="XMLID_252_" class="st0" d="M185.8,266.2c-0.1-2.3-0.4-4.7-0.4-7c-0.1-4-0.2-7.9-0.2-11.9c0-2.3-0.1-4.6,0-7
									c0-0.7,0.3-1.5,0.6-2.2c0.1-0.3,0.6-0.7,0.9-0.7c0.3,0,0.8,0.4,0.9,0.7c0.9,2.7,1.2,5.4,0.4,8.2c-0.3,0.9-0.5,1.8-0.5,2.7
									c-0.3,5.4-0.5,10.8-0.8,16.2c0,0.3-0.2,0.7-0.3,1C186,266.3,185.9,266.2,185.8,266.2z"/>
								<path id="XMLID_251_" class="st0" d="M186.7,298.7c0,0.5,0,0.8-0.1,1.2c-0.5,3.4-1,6.8-1.5,10.1c-0.1,0.8-0.3,1.6-0.6,2.3
									c-0.1,0.4-0.6,0.6-0.9,0.9c-0.2-0.3-0.5-0.7-0.5-1c-0.3-4.3-0.4-8.7,0.7-13c0.3-1.2,0.5-2.5,0.9-3.7
									c0.1-0.4,0.6-0.6,0.9-0.9c0.2,0.4,0.6,0.7,0.7,1.1C186.6,296.7,186.6,297.8,186.7,298.7z"/>
								<path id="XMLID_245_" class="st0" d="M182.7,180.1c-0.3-0.6-0.7-1.3-1-1.9c0.1-0.1,0.3-0.2,0.4-0.2c0.4,0.6,0.7,1.2,1.1,1.9
									C183,180,182.9,180.1,182.7,180.1z"/>
								<path id="XMLID_244_" class="st0" d="M199,171.1c-0.2-0.3-0.5-0.5-0.4-0.7c0.1-0.2,0.3-0.4,0.4-0.7c0.2,0.2,0.4,0.3,0.4,0.5
									C199.4,170.4,199.2,170.7,199,171.1z"/>
								<path id="XMLID_243_" d="M234.7,166.3c0-0.5,0-0.8,0.1-1c0.2-1.8,2.1-2.8,3.7-1.7c0.7,0.4,0.7,1.1,0,1.4
									c-1.1,0.5-1.5,1.2-1.3,2.4c0.1,0.2-0.5,0.9-0.8,0.9c-0.5,0-1.1-0.2-1.4-0.5C234.7,167.3,234.7,166.6,234.7,166.3z"/>
								<path id="XMLID_179_" d="M194.8,97c-0.3,0-0.5-0.1-0.8-0.1c0-0.1,0-0.2,0.1-0.3c0.3,0.1,0.5,0.1,0.8,0.2
									C194.8,96.8,194.8,96.9,194.8,97z"/>
							</g>
						</g>
					</g>
				</g>
				<path id="XMLID_214_" d="M191.7,94c1.8,0.2,3.3,0.2,4.8,0.9c0.9,0.5,1.9,0.3,2.8,0c0.3-0.1,0.6-0.3,0.9-0.4
					c0.9-0.3,1.6-0.2,2.2,0.6c0.7,0.8,0.4,1.6,0.1,2.4c-0.4,0.8-0.8,1-1.8,0.9c-0.9-0.2-1.8-0.1-2.6,0.4c-0.7,0.4-1.3,0.4-2-0.1
					c-0.3-0.2-0.6-0.5-1-0.5c-1.6-0.3-2.9-1.2-4.3-1.7c-1-0.4-1.2-1.3-0.3-1.9C190.9,94.2,191.5,94.1,191.7,94z"/>
			</g>
		</g>
	</g>
</g>
</svg>
